# xmcd
#
# Track frame offsets:
# 150
# 9108
# 30475
#
# Disc length: 548 seconds
#
#
# Revision: 0
# Processed by: cddbd v1.5.1PL0 Copyright (c) Steve Scherf et al.
# Submitted via: FreeRIP 2.12 
#
DISCID=10022203
DTITLE=union avenue - union avenue teenage kicks
DYEAR=2005
DGENRE=Country
TTITLE0=teenage kicks
TTITLE1=sympathy for the devil
TTITLE2=feltham prison blues
EXTD=
EXTT0=
EXTT1=
EXTT2=
PLAYORDER=
